<?xml version="1.0" encoding="UTF-8" standalone="no"?>
<!DOCTYPE svg PUBLIC "-//W3C//DTD SVG 1.1//EN"
 "http://www.w3.org/Graphics/SVG/1.1/DTD/svg11.dtd">
<!-- Generated by graphviz version 4.0.0 (20220529.0937)
 -->
<!-- Pages: 1 -->
<svg width="387pt" height="448pt"
 viewBox="0.00 0.00 387.32 447.53" xmlns="http://www.w3.org/2000/svg" xmlns:xlink="http://www.w3.org/1999/xlink">
<g id="graph0" class="graph" transform="scale(1 1) rotate(0) translate(28.8 418.73)">
<polygon fill="white" stroke="transparent" points="-28.8,28.8 -28.8,-418.73 358.52,-418.73 358.52,28.8 -28.8,28.8"/>
<text text-anchor="middle" x="164.86" y="-357.13" font-family="Helvetica,sans-Serif" font-size="36.00">sqlxpg</text>
<!-- sqlxpg -->
<g id="node1" class="node">
<title>sqlxpg</title>
<polygon fill="#5397c8" stroke="black" points="121.42,-144.96 121.42,-182.96 175.42,-182.96 175.42,-144.96 121.42,-144.96"/>
<text text-anchor="middle" x="148.42" y="-170.96" font-family="monospace" font-size="10.00">crate</text>
<polyline fill="none" stroke="black" points="121.42,-163.96 175.42,-163.96 "/>
<text text-anchor="middle" x="148.42" y="-151.96" font-family="monospace" font-size="10.00">sqlxpg</text>
</g>
<!-- sqlxpg::api -->
<g id="node2" class="node">
<title>sqlxpg::api</title>
<polygon fill="#f8c04c" stroke="black" points="131.45,-210.82 131.45,-248.82 232.45,-248.82 232.45,-210.82 131.45,-210.82"/>
<text text-anchor="middle" x="181.95" y="-236.82" font-family="monospace" font-size="10.00">pub(crate) mod</text>
<polyline fill="none" stroke="black" points="131.45,-229.82 232.45,-229.82 "/>
<text text-anchor="middle" x="181.95" y="-217.82" font-family="monospace" font-size="10.00">api</text>
</g>
<!-- sqlxpg&#45;&gt;sqlxpg::api -->
<g id="edge1" class="edge">
<title>sqlxpg&#45;&gt;sqlxpg::api</title>
<path fill="none" stroke="#000000" d="M158.12,-183.01C161.08,-188.83 164.41,-195.36 167.61,-201.65"/>
<polygon fill="#000000" stroke="#000000" points="164.5,-203.26 172.16,-210.59 170.74,-200.09 164.5,-203.26"/>
<text text-anchor="middle" x="150.36" y="-195.33" font-family="monospace" font-size="10.00">owns</text>
</g>
<!-- sqlxpg::model -->
<g id="node6" class="node">
<title>sqlxpg::model</title>
<polygon fill="#f8c04c" stroke="black" points="111.86,-73.05 111.86,-111.05 212.86,-111.05 212.86,-73.05 111.86,-73.05"/>
<text text-anchor="middle" x="162.36" y="-99.05" font-family="monospace" font-size="10.00">pub(crate) mod</text>
<polyline fill="none" stroke="black" points="111.86,-92.05 212.86,-92.05 "/>
<text text-anchor="middle" x="162.36" y="-80.05" font-family="monospace" font-size="10.00">model</text>
</g>
<!-- sqlxpg&#45;&gt;sqlxpg::model -->
<g id="edge5" class="edge">
<title>sqlxpg&#45;&gt;sqlxpg::model</title>
<path fill="none" stroke="#000000" d="M152.16,-144.69C153.55,-137.52 155.16,-129.2 156.68,-121.33"/>
<polygon fill="#000000" stroke="#000000" points="160.15,-121.86 158.61,-111.37 153.27,-120.52 160.15,-121.86"/>
<text text-anchor="middle" x="141.92" y="-136.01" font-family="monospace" font-size="10.00">owns</text>
</g>
<!-- sqlxpg::models -->
<g id="node9" class="node">
<title>sqlxpg::models</title>
<polygon fill="#ba6fa7" stroke="black" points="0,-154.67 0,-192.67 77,-192.67 77,-154.67 0,-154.67"/>
<text text-anchor="middle" x="38.5" y="-180.67" font-family="monospace" font-size="10.00">orphan mod</text>
<polyline fill="none" stroke="black" points="0,-173.67 77,-173.67 "/>
<text text-anchor="middle" x="38.5" y="-161.67" font-family="monospace" font-size="10.00">models</text>
</g>
<!-- sqlxpg&#45;&gt;sqlxpg::models -->
<g id="edge8" class="edge">
<title>sqlxpg&#45;&gt;sqlxpg::models</title>
<path fill="none" stroke="#000000" d="M121.25,-166.36C111.02,-167.26 99.05,-168.32 87.44,-169.35"/>
<polygon fill="#000000" stroke="#000000" points="87.04,-165.87 77.39,-170.23 87.66,-172.84 87.04,-165.87"/>
<text text-anchor="middle" x="91.85" y="-170.85" font-family="monospace" font-size="10.00">owns</text>
</g>
<!-- sqlxpg::api::routes -->
<g id="node3" class="node">
<title>sqlxpg::api::routes</title>
<polygon fill="#81c169" stroke="black" points="246.72,-178.15 246.72,-216.15 329.72,-216.15 329.72,-178.15 246.72,-178.15"/>
<text text-anchor="middle" x="288.22" y="-204.15" font-family="monospace" font-size="10.00">pub mod</text>
<polyline fill="none" stroke="black" points="246.72,-197.15 329.72,-197.15 "/>
<text text-anchor="middle" x="288.22" y="-185.15" font-family="monospace" font-size="10.00">api::routes</text>
</g>
<!-- sqlxpg::api&#45;&gt;sqlxpg::api::routes -->
<g id="edge2" class="edge">
<title>sqlxpg::api&#45;&gt;sqlxpg::api::routes</title>
<path fill="none" stroke="#000000" d="M232.6,-214.25C234.07,-213.8 235.54,-213.35 237.01,-212.89"/>
<polygon fill="#000000" stroke="#000000" points="238.11,-216.22 246.64,-209.93 236.06,-209.53 238.11,-216.22"/>
<text text-anchor="middle" x="247.31" y="-216.57" font-family="monospace" font-size="10.00">owns</text>
</g>
<!-- sqlxpg::api::user -->
<g id="node4" class="node">
<title>sqlxpg::api::user</title>
<polygon fill="#81c169" stroke="black" points="46.09,-291.96 46.09,-329.96 117.09,-329.96 117.09,-291.96 46.09,-291.96"/>
<text text-anchor="middle" x="81.59" y="-317.96" font-family="monospace" font-size="10.00">pub mod</text>
<polyline fill="none" stroke="black" points="46.09,-310.96 117.09,-310.96 "/>
<text text-anchor="middle" x="81.59" y="-298.96" font-family="monospace" font-size="10.00">api::user</text>
</g>
<!-- sqlxpg::api&#45;&gt;sqlxpg::api::user -->
<g id="edge3" class="edge">
<title>sqlxpg::api&#45;&gt;sqlxpg::api::user</title>
<path fill="none" stroke="#000000" d="M158.42,-248.84C144.93,-259.75 127.82,-273.59 113.17,-285.43"/>
<polygon fill="#000000" stroke="#000000" points="110.9,-282.76 105.32,-291.77 115.3,-288.21 110.9,-282.76"/>
<text text-anchor="middle" x="123.29" y="-270.14" font-family="monospace" font-size="10.00">owns</text>
</g>
<!-- sqlxpg::api::book -->
<g id="node5" class="node">
<title>sqlxpg::api::book</title>
<polygon fill="#81c169" stroke="black" points="212.08,-303.43 212.08,-341.43 283.08,-341.43 283.08,-303.43 212.08,-303.43"/>
<text text-anchor="middle" x="247.58" y="-329.43" font-family="monospace" font-size="10.00">pub mod</text>
<polyline fill="none" stroke="black" points="212.08,-322.43 283.08,-322.43 "/>
<text text-anchor="middle" x="247.58" y="-310.43" font-family="monospace" font-size="10.00">api::book</text>
</g>
<!-- sqlxpg::api&#45;&gt;sqlxpg::api::book -->
<g id="edge4" class="edge">
<title>sqlxpg::api&#45;&gt;sqlxpg::api::book</title>
<path fill="none" stroke="#000000" d="M195.55,-249.01C204.97,-262.3 217.64,-280.18 228.12,-294.97"/>
<polygon fill="#000000" stroke="#000000" points="225.36,-297.13 234,-303.27 231.08,-293.08 225.36,-297.13"/>
<text text-anchor="middle" x="199.34" y="-274.99" font-family="monospace" font-size="10.00">owns</text>
</g>
<!-- sqlxpg::model::models -->
<g id="node7" class="node">
<title>sqlxpg::model::models</title>
<polygon fill="#81c169" stroke="black" points="211.43,-13.6 211.43,-51.6 306.43,-51.6 306.43,-13.6 211.43,-13.6"/>
<text text-anchor="middle" x="258.93" y="-39.6" font-family="monospace" font-size="10.00">pub mod</text>
<polyline fill="none" stroke="black" points="211.43,-32.6 306.43,-32.6 "/>
<text text-anchor="middle" x="258.93" y="-20.6" font-family="monospace" font-size="10.00">model::models</text>
</g>
<!-- sqlxpg::model&#45;&gt;sqlxpg::model::models -->
<g id="edge6" class="edge">
<title>sqlxpg::model&#45;&gt;sqlxpg::model::models</title>
<path fill="none" stroke="#000000" d="M193.44,-72.91C201.63,-67.87 210.57,-62.37 219.14,-57.09"/>
<polygon fill="#000000" stroke="#000000" points="221.22,-59.92 227.9,-51.7 217.55,-53.96 221.22,-59.92"/>
<text text-anchor="middle" x="193.79" y="-57" font-family="monospace" font-size="10.00">owns</text>
</g>
<!-- sqlxpg::model::usermodel -->
<g id="node8" class="node">
<title>sqlxpg::model::usermodel</title>
<polygon fill="#81c169" stroke="black" points="14.91,-0.5 14.91,-38.5 127.91,-38.5 127.91,-0.5 14.91,-0.5"/>
<text text-anchor="middle" x="71.41" y="-26.5" font-family="monospace" font-size="10.00">pub mod</text>
<polyline fill="none" stroke="black" points="14.91,-19.5 127.91,-19.5 "/>
<text text-anchor="middle" x="71.41" y="-7.5" font-family="monospace" font-size="10.00">model::usermodel</text>
</g>
<!-- sqlxpg::model&#45;&gt;sqlxpg::model::usermodel -->
<g id="edge7" class="edge">
<title>sqlxpg::model&#45;&gt;sqlxpg::model::usermodel</title>
<path fill="none" stroke="#000000" d="M138.46,-72.99C127.79,-64.47 115.06,-54.31 103.57,-45.15"/>
<polygon fill="#000000" stroke="#000000" points="105.47,-42.19 95.47,-38.69 101.1,-47.66 105.47,-42.19"/>
<text text-anchor="middle" x="108.52" y="-62.07" font-family="monospace" font-size="10.00">owns</text>
</g>
</g>
</svg>
